<svg xmlns="http://www.w3.org/2000/svg" width="900" height="420" viewBox="0 0 900 420">
  <rect width="100%" height="100%" fill="white"/>
  <text x="450.0" y="28" text-anchor="middle" font-size="20" font-family="Arial">Input Length Drift PSI</text>
  <line x1="60" y1="360" x2="840" y2="360" stroke="#475569"/>
  <line x1="60" y1="60" x2="60" y2="360" stroke="#475569"/>
  <line x1="60" y1="352.9" x2="840" y2="352.9" stroke="#f59e0b" stroke-dasharray="6 6"/>
  <line x1="60" y1="342.2" x2="840" y2="342.2" stroke="#dc2626" stroke-dasharray="6 6"/>
  <text x="848" y="352.9" font-size="12">PSI 0.10</text>
  <text x="848" y="342.2" font-size="12">PSI 0.25</text>
  <polyline points="60.0,358.8 255.0,248.3 450.0,231.9 645.0,60.0 840.0,311.1" fill="none" stroke="#2563eb" stroke-width="3"/>
  <circle cx="60.0" cy="358.8" r="5" fill="#2563eb" /><text x="60.0" y="395" text-anchor="middle" font-size="12">w1_stable</text><text x="60.0" y="348.8" text-anchor="middle" font-size="12">0.017</text><circle cx="255.0" cy="248.3" r="5" fill="#2563eb" /><text x="255.0" y="395" text-anchor="middle" font-size="12">w2_longer_inputs</text><text x="255.0" y="238.3" text-anchor="middle" font-size="12">1.568</text><circle cx="450.0" cy="231.9" r="5" fill="#2563eb" /><text x="450.0" y="395" text-anchor="middle" font-size="12">w3_low_retrieval</text><text x="450.0" y="221.9" text-anchor="middle" font-size="12">1.799</text><circle cx="645.0" cy="60.0" r="5" fill="#2563eb" /><text x="645.0" y="395" text-anchor="middle" font-size="12">w4_integrity_spike</text><text x="645.0" y="50.0" text-anchor="middle" font-size="12">4.212</text><circle cx="840.0" cy="311.1" r="5" fill="#2563eb" /><text x="840.0" y="395" text-anchor="middle" font-size="12">w5_partial_recovery</text><text x="840.0" y="301.1" text-anchor="middle" font-size="12">0.686</text>
</svg>
