<svg xmlns="http://www.w3.org/2000/svg" width="900" height="420" viewBox="0 0 900 420">
  <rect width="100%" height="100%" fill="white"/>
  <text x="450.0" y="25" text-anchor="middle" font-size="20" font-family="Arial">Integrity Anomalies by Window</text>
  <rect x="60" y="38" width="14" height="14" fill="#64748b"/><text x="80" y="50" font-size="13">empty_input</text><rect x="240" y="38" width="14" height="14" fill="#f97316"/><text x="260" y="50" font-size="13">oversized_input</text><rect x="420" y="38" width="14" height="14" fill="#dc2626"/><text x="440" y="50" font-size="13">low_retrieval_score</text>
  <line x1="60" y1="360" x2="840" y2="360" stroke="#475569"/>
  <line x1="60" y1="60" x2="60" y2="360" stroke="#475569"/>
  <rect x="72.0" y="358.5" width="35.0" height="1.5" fill="#64748b"/><text x="89.5" y="353.5" text-anchor="middle" font-size="11">3</text><rect x="111.0" y="356.5" width="35.0" height="3.5" fill="#f97316"/><text x="128.5" y="351.5" text-anchor="middle" font-size="11">7</text><rect x="150.0" y="339.8" width="35.0" height="20.2" fill="#dc2626"/><text x="167.5" y="334.8" text-anchor="middle" font-size="11">40</text><text x="138.0" y="395" text-anchor="middle" font-size="12">w1_stable</text><rect x="228.0" y="357.5" width="35.0" height="2.5" fill="#64748b"/><text x="245.5" y="352.5" text-anchor="middle" font-size="11">5</text><rect x="267.0" y="355.0" width="35.0" height="5.0" fill="#f97316"/><text x="284.5" y="350.0" text-anchor="middle" font-size="11">10</text><rect x="306.0" y="309.0" width="35.0" height="51.0" fill="#dc2626"/><text x="323.5" y="304.0" text-anchor="middle" font-size="11">101</text><text x="294.0" y="395" text-anchor="middle" font-size="12">w2_longer_inputs</text><rect x="384.0" y="358.0" width="35.0" height="2.0" fill="#64748b"/><text x="401.5" y="353.0" text-anchor="middle" font-size="11">4</text><rect x="423.0" y="355.5" width="35.0" height="4.5" fill="#f97316"/><text x="440.5" y="350.5" text-anchor="middle" font-size="11">9</text><rect x="462.0" y="191.9" width="35.0" height="168.1" fill="#dc2626"/><text x="479.5" y="186.9" text-anchor="middle" font-size="11">333</text><text x="450.0" y="395" text-anchor="middle" font-size="12">w3_low_retrieval</text><rect x="540.0" y="349.9" width="35.0" height="10.1" fill="#64748b"/><text x="557.5" y="344.9" text-anchor="middle" font-size="11">20</text><rect x="579.0" y="337.3" width="35.0" height="22.7" fill="#f97316"/><text x="596.5" y="332.3" text-anchor="middle" font-size="11">45</text><rect x="618.0" y="100.0" width="35.0" height="260.0" fill="#dc2626"/><text x="635.5" y="95.0" text-anchor="middle" font-size="11">515</text><text x="606.0" y="395" text-anchor="middle" font-size="12">w4_integrity_spike</text><rect x="696.0" y="356.5" width="35.0" height="3.5" fill="#64748b"/><text x="713.5" y="351.5" text-anchor="middle" font-size="11">7</text><rect x="735.0" y="353.9" width="35.0" height="6.1" fill="#f97316"/><text x="752.5" y="348.9" text-anchor="middle" font-size="11">12</text><rect x="774.0" y="278.2" width="35.0" height="81.8" fill="#dc2626"/><text x="791.5" y="273.2" text-anchor="middle" font-size="11">162</text><text x="762.0" y="395" text-anchor="middle" font-size="12">w5_partial_recovery</text>
</svg>
