<svg xmlns="http://www.w3.org/2000/svg" width="900" height="420" viewBox="0 0 900 420">
  <rect width="100%" height="100%" fill="white"/>
  <text x="450.0" y="28" text-anchor="middle" font-size="20" font-family="Arial">Response Length Drift PSI</text>
  <line x1="60" y1="360" x2="840" y2="360" stroke="#475569"/>
  <line x1="60" y1="60" x2="60" y2="360" stroke="#475569"/>
  <line x1="60" y1="260.0" x2="840" y2="260.0" stroke="#f59e0b" stroke-dasharray="6 6"/>
  <line x1="60" y1="110.0" x2="840" y2="110.0" stroke="#dc2626" stroke-dasharray="6 6"/>
  <text x="848" y="260.0" font-size="12">PSI 0.10</text>
  <text x="848" y="110.0" font-size="12">PSI 0.25</text>
  <polyline points="60.0,354.7 255.0,279.3 450.0,342.2 645.0,172.0 840.0,345.2" fill="none" stroke="#2563eb" stroke-width="3"/>
  <circle cx="60.0" cy="354.7" r="5" fill="#2563eb" /><text x="60.0" y="395" text-anchor="middle" font-size="12">w1_stable</text><text x="60.0" y="344.7" text-anchor="middle" font-size="12">0.005</text><circle cx="255.0" cy="279.3" r="5" fill="#2563eb" /><text x="255.0" y="395" text-anchor="middle" font-size="12">w2_longer_inputs</text><text x="255.0" y="269.3" text-anchor="middle" font-size="12">0.081</text><circle cx="450.0" cy="342.2" r="5" fill="#2563eb" /><text x="450.0" y="395" text-anchor="middle" font-size="12">w3_low_retrieval</text><text x="450.0" y="332.2" text-anchor="middle" font-size="12">0.018</text><circle cx="645.0" cy="172.0" r="5" fill="#2563eb" /><text x="645.0" y="395" text-anchor="middle" font-size="12">w4_integrity_spike</text><text x="645.0" y="162.0" text-anchor="middle" font-size="12">0.188</text><circle cx="840.0" cy="345.2" r="5" fill="#2563eb" /><text x="840.0" y="395" text-anchor="middle" font-size="12">w5_partial_recovery</text><text x="840.0" y="335.2" text-anchor="middle" font-size="12">0.015</text>
</svg>
